# xmcd
# 
# Track frame offsets:
#     150
#     9213
#     20237
#     31714
#     41547
#     50469
#     66865
#     76363
#     89286
#     99353
#     107609
#     118101
#     132136
#     146722
#     160559
#     180939
#     191267
#     205310
#     212812
#     225457
#     239347
#     249649
#     263848
#     271078
#     283346
#     297259
#     307611
#     320092
# 
# Disc length: 4449
# 
# Revision: 1
# Processed by: cddbd v1.5.2PL0 Copyright (c) Steve Scherf et al.
# Submitted via: BonkEnc v1.0
# 
DISCID=7d115f1c
DTITLE=Rangers - To nejlepsi z Plavcu [CD1)
DYEAR=2005
DGENRE=Country
TTITLE0=Jarni vylet
TTITLE1=Kazdy tyden
TTITLE2=Orchidej
TTITLE3=Bajecny bal
TTITLE4=Cesta na Tabor
TTITLE5=Vysocina
TTITLE6=Divnej sen
TTITLE7=Chvili
TTITLE8=Kdyz
TTITLE9=Vitam Vas
TTITLE10=Klekani
TTITLE11=Berounka
TTITLE12=Duby
TTITLE13=Kriznik Bismarck
TTITLE14=Kopaj hrob muj
TTITLE15=Ve svych rukou
TTITLE16=Chvala pisni
TTITLE17=Jako ty
TTITLE18=Par koni mam
TTITLE19=Laska konci
TTITLE20=Zarlivost
TTITLE21=Kouzelnik
TTITLE22=Rybareni
TTITLE23=Jestli se chces stat mou zenou
TTITLE24=Romance 16. leta
TTITLE25=Dzin hej
TTITLE26=Otcova hul
TTITLE27=Kvety dej
EXTD=
EXTT0=
EXTT1=
EXTT2=
EXTT3=
EXTT4=
EXTT5=
EXTT6=
EXTT7=
EXTT8=
EXTT9=
EXTT10=
EXTT11=
EXTT12=
EXTT13=
EXTT14=
EXTT15=
EXTT16=
EXTT17=
EXTT18=
EXTT19=
EXTT20=
EXTT21=
EXTT22=
EXTT23=
EXTT24=
EXTT25=
EXTT26=
EXTT27=
PLAYORDER=
